<?xml version="1.0" encoding="UTF-8" standalone="no"?>
<!-- Created with Inkscape (http://www.inkscape.org/) -->

<svg
   width="512"
   height="512"
   viewBox="0 0 512 512"
   version="1.1"
   id="svg1"
   xml:space="preserve"
   inkscape:export-filename="vercel.svg"
   inkscape:export-xdpi="96"
   inkscape:export-ydpi="96"
   xmlns:inkscape="http://www.inkscape.org/namespaces/inkscape"
   xmlns:sodipodi="http://sodipodi.sourceforge.net/DTD/sodipodi-0.dtd"
   xmlns="http://www.w3.org/2000/svg"
   xmlns:svg="http://www.w3.org/2000/svg"><sodipodi:namedview
     id="namedview1"
     pagecolor="#ffffff"
     bordercolor="#000000"
     borderopacity="0.25"
     inkscape:showpageshadow="2"
     inkscape:pageopacity="0.0"
     inkscape:pagecheckerboard="0"
     inkscape:deskcolor="#d1d1d1"
     inkscape:document-units="px" /><defs
     id="defs1"><style
       id="style1">.cls-1{fill:none;}.cls-2{clip-path:url(#clip-path);}.cls-3{fill:url(#linear-gradient);}.cls-4{clip-path:url(#clip-path-2);}.cls-5{fill:url(#linear-gradient-2);}</style></defs><g
     inkscape:label="Capa 1"
     inkscape:groupmode="layer"
     id="layer1"><rect
       style="fill:#242938;fill-opacity:1;stroke-width:1"
       id="rect1"
       width="512"
       height="512"
       x="0"
       y="5.8339168e-08"
       rx="65.232193"
       ry="65.232193" /><path
       d="m 393.63746,72.242026 c 5.25515,2.587983 8.62657,4.061602 15.26663,9.673057 13.9218,13.459592 30.10127,28.958297 37.29079,48.583077 2.21723,8.65237 1.827,17.43442 1.68841,26.30683 0.006,1.90192 0.0118,3.80383 0.0181,5.76337 -0.1228,17.52504 -2.36401,31.80805 -11.70008,46.81524 l -2.22425,3.59851 c -14.47668,22.48392 -35.99203,35.49373 -61.69704,42.24149 -15.56567,2.67728 -31.70855,1.85188 -47.46148,1.76442 -28.76399,-0.38774 -28.76399,-0.38774 -53.1118,13.61295 -10.79035,11.21161 -13.99216,23.1279 -13.96356,38.19761 l -0.0571,4.57596 c -0.0555,4.9502 -0.0729,9.89976 -0.0897,14.85022 -0.0312,3.44844 -0.0648,6.89686 -0.10067,10.34525 -0.0877,9.04538 -0.143,18.09066 -0.19143,27.13632 -0.0553,9.2427 -0.14133,18.48508 -0.22477,27.72756 -0.15901,18.11209 -0.28373,36.22426 -0.38676,54.33674 -24.82077,0.0425 -49.64154,0.0753 -74.46234,0.0954 -11.52399,0.009 -23.04796,0.0226 -34.57193,0.0434 -11.11114,0.0199 -22.22224,0.0309 -33.33339,0.0357 -4.24944,0.004 -8.49887,0.009 -12.74828,0.0201 -5.92956,0.0129 -11.859006,0.0147 -17.788582,0.0147 -1.77571,0.007 -3.55142,0.0129 -5.380945,0.0201 -1.60638,-0.002 -3.21276,-0.006 -4.867829,-0.007 -2.105895,0.002 -2.105895,0.002 -4.254335,0.006 -3.20458,-0.22753 -3.20458,-0.22753 -5.055184,-2.06835 -0.176918,-2.67806 -0.225552,-5.36463 -0.222535,-8.04848 -0.0037,-2.60595 -0.0037,-2.60595 -0.0074,-5.26455 0.0074,-1.92123 0.01295,-3.84248 0.02017,-5.82196 -2.59e-4,-2.01118 -5.37e-4,-4.02237 -8.14e-4,-6.0945 0.0013,-6.68354 0.01481,-13.36699 0.03017,-20.05054 0.0037,-4.61979 0.0056,-9.2396 0.0074,-13.85942 0.0056,-10.93962 0.02091,-21.87919 0.03942,-32.8188 0.02276,-13.6721 0.03257,-27.34419 0.04293,-41.0163 0.0198,-24.39935 0.05108,-48.7987 0.09031,-73.19802 6.119411,1.14258 11.095112,2.50529 16.655436,5.29237 30.026718,13.46029 63.694368,13.04973 94.380808,2.07093 16.6888,-6.54533 31.26769,-15.49528 44.41449,-27.61239 l 3.90362,-3.58099 c 17.53285,-17.7782 26.04578,-40.77571 31.4169,-64.60869 4.45919,-19.74433 10.57034,-37.64321 23.89916,-53.304873 l 3.49157,-4.285674 C 310.46403,62.452902 355.80376,56.858862 393.63746,72.242026 Z"
       fill="#0E0E0E"
       id="path2"
       style="fill:#ffffff;fill-opacity:1;stroke-width:1.84571"
       sodipodi:nodetypes="ccccccccccccccccccccccccccccccccccccccccccc" /></g><style
     id="style1-1">*{fill:#36c}</style><style
     type="text/css"
     id="style1-5">.st0{fill:#0acf83}.st1{fill:#a259ff}.st2{fill:#f24e1e}.st3{fill:#ff7262}.st4{fill:#1abcfe}</style></svg>
