<?xml version="1.0" encoding="UTF-8" standalone="no"?>
<!-- Created with Inkscape (http://www.inkscape.org/) -->

<svg
   width="512"
   height="512"
   viewBox="0 0 512 512"
   version="1.1"
   id="svg1"
   xml:space="preserve"
   inkscape:export-filename="arduino.svg"
   inkscape:export-xdpi="96"
   inkscape:export-ydpi="96"
   xmlns:inkscape="http://www.inkscape.org/namespaces/inkscape"
   xmlns:sodipodi="http://sodipodi.sourceforge.net/DTD/sodipodi-0.dtd"
   xmlns="http://www.w3.org/2000/svg"
   xmlns:svg="http://www.w3.org/2000/svg"><sodipodi:namedview
     id="namedview1"
     pagecolor="#ffffff"
     bordercolor="#000000"
     borderopacity="0.25"
     inkscape:showpageshadow="2"
     inkscape:pageopacity="0.0"
     inkscape:pagecheckerboard="0"
     inkscape:deskcolor="#d1d1d1"
     inkscape:document-units="px" /><defs
     id="defs1"><style
       id="style1">.cls-1{fill:none;}.cls-2{clip-path:url(#clip-path);}.cls-3{fill:url(#linear-gradient);}.cls-4{clip-path:url(#clip-path-2);}.cls-5{fill:url(#linear-gradient-2);}</style></defs><g
     inkscape:label="Capa 1"
     inkscape:groupmode="layer"
     id="layer1"><rect
       style="fill:#242938;fill-opacity:1;stroke-width:1"
       id="rect1"
       width="512"
       height="512"
       x="0"
       y="5.8339168e-08"
       rx="65.232193"
       ry="65.232193" /><path
       d="m 241.68957,447.34759 c -33.71583,-3.23438 -63.94454,-13.24743 -88.11968,-29.18467 l -5.07873,-3.34872 -1.22155,-9.42636 c -1.35393,-10.49445 -2.77406,-27.18387 -2.76202,-32.6748 v -3.58039 l 15.77177,-0.12937 c 8.67417,-0.0722 18.40439,-0.40016 21.62674,-0.75218 5.11184,-0.54158 6.12277,-0.44831 7.97916,0.71607 17.19488,10.7893 43.4611,17.94707 65.80392,17.92301 35.80089,-0.024 67.43767,-13.22338 92.97578,-38.78253 11.29477,-11.30982 17.50178,-19.80647 24.28045,-33.27656 18.61801,-36.92613 19.01818,-79.17774 1.11924,-116.13998 -17.72142,-36.58616 -52.27668,-63.46615 -91.76625,-71.36406 -10.17854,-2.04594 -24.19922,-3.12607 -32.57853,-2.52734 l -6.82982,0.49644 1.72701,-2.44609 c 0.9628,-1.33889 7.29918,-8.12357 14.09289,-15.06772 l 12.35384,-12.621626 -5.07873,-4.723705 C 258.80322,83.736567 248.88344,75.46256 241.44586,69.950567 l -6.36948,-4.711672 2.39495,-0.56564 c 4.73875,-1.116239 32.39199,-0.776252 42.2877,0.517501 81.30792,10.623826 146.20621,69.682184 163.82534,149.097614 5.76773,25.96233 5.88507,54.71977 0.35202,81.58773 -6.9953,33.90838 -24.77689,67.34439 -49.46954,92.99984 A 192.59782,192.59782 0 0 1 273.60016,447.0407 c -7.66324,0.71608 -25.85702,0.88156 -31.90758,0.30689 z M 121.37949,392.15545 c -10.89763,-10.88258 -25.62235,-28.55886 -24.62345,-29.55776 0.18655,-0.18955 4.30249,0.46937 9.13149,1.44419 7.33529,1.49233 23.83516,3.99559 26.32639,3.99559 0.3761,0 0.69201,3.11404 0.70404,7.07653 0.0121,6.48683 0.69202,15.7838 1.8594,25.38466 0.32795,2.70485 0.21061,3.80905 -0.39113,3.80905 -0.46937,0 -6.33338,-5.46687 -13.00674,-12.15527 z m 23.1281,-38.8788 c 0,-5.83995 1.5164,-23.23643 2.07904,-23.8472 0.27078,-0.28282 2.56343,2.22045 5.1028,5.57217 2.52734,3.36075 8.26197,9.7182 12.73896,14.12599 l 8.1326,8.03932 h -28.0534 z m -14.87817,2.66874 c -12.1312,-1.49233 -36.76668,-6.22807 -38.72536,-7.44059 -0.60175,-0.37609 0.11734,-3.29155 2.52734,-10.25978 3.18323,-9.16759 10.69302,-27.18386 11.86943,-28.44151 0.29185,-0.3069 4.25435,1.37498 8.80355,3.74888 4.55823,2.37388 11.16239,5.54809 14.70066,7.07351 l 6.41761,2.74998 -0.44529,3.31563 c -1.02297,7.73243 -1.84736,18.19379 -1.8594,23.76294 -0.009,3.29155 -0.27078,5.93623 -0.56263,5.87906 -0.30688,-0.0601 -1.52843,-0.23769 -2.72591,-0.39114 z M 76.89241,324.74185 a 204.69893,204.69893 0 0 1 -9.2729,-32.06403 c -2.24151,-11.11726 -2.17231,-11.1985 4.73875,-5.74668 3.19527,2.52733 9.31803,6.98025 13.59945,9.88368 4.2724,2.91846 7.77757,5.41872 7.77757,5.5481 0,0.14141 -1.33889,3.15014 -2.97263,6.67637 a 329.88315,329.88315 0 0 0 -6.24312,14.76083 c -1.7962,4.58229 -3.50216,8.60496 -3.80604,8.92088 -0.29485,0.31592 -2.00982,-3.27951 -3.82108,-7.97915 z m 52.17137,-18.75944 c -5.56915,-2.56042 -15.67548,-7.72039 -17.05348,-8.69522 -0.28281,-0.20158 7.1698,-12.48322 10.96682,-18.06441 l 2.97263,-4.38372 0.5175,2.18433 c 3.32465,13.91538 5.32545,20.99191 7.39244,26.13985 1.35394,3.36978 2.42204,6.12276 2.38594,6.12276 -0.0482,-0.0121 -3.27953,-1.49233 -7.18185,-3.30359 z M 91.10263,284.20824 c -7.82871,-5.46686 -20.91067,-15.75973 -21.73204,-17.08959 -0.77325,-1.25765 25.88108,-27.09059 27.96012,-27.09059 0.343,0 3.23439,3.42994 6.41762,7.6181 3.19828,4.19416 7.46165,9.51961 9.49555,11.83333 2.0339,2.31673 3.70074,4.36266 3.70074,4.5492 0,0.18654 -2.55742,4.1731 -5.69854,8.84868 -3.12606,4.66653 -6.75761,10.38011 -8.04835,12.66975 -1.29375,2.29265 -2.76202,4.17312 -3.27951,4.17312 -0.50547,0 -4.48,-2.4792 -8.81559,-5.512 z M 64,249.43935 c 0.10531,-9.10741 3.17421,-29.85261 6.18294,-41.77019 2.98466,-11.79723 2.39796,-11.71599 7.81668,-0.9989 2.60856,5.18404 6.19197,11.83635 7.94305,14.79693 l 3.18624,5.36157 -5.49996,4.71167 c -3.02077,2.58751 -8.67416,7.83774 -12.56446,11.65882 C 67.17421,247.02937 64,249.83952 64,249.43935 Z m 58.30918,-2.38592 c -5.72561,-6.82981 -12.56746,-16.31332 -12.2034,-16.90003 0.49343,-0.80032 8.94495,-6.53496 15.8199,-10.74117 4.60636,-2.82218 4.9614,-2.92749 4.50106,-1.37498 -1.69091,5.7918 -4.09188,17.96813 -4.75982,24.13001 -0.43325,3.95949 -0.85748,7.28413 -0.95076,7.3774 -0.0932,0.0962 -1.17339,-1.03199 -2.40698,-2.49123 z M 97.14416,210.73806 c -7.52182,-13.10602 -16.20802,-31.85041 -15.19708,-32.78011 1.62471,-1.5164 29.1937,-9.2368 37.33833,-10.45834 l 3.17422,-0.4814 1.59763,9.67307 c 0.87253,5.32545 2.33778,12.79612 3.26747,16.61721 l 1.68188,6.95618 -5.95727,3.38483 c -3.27953,1.87143 -9.55875,5.79481 -13.94246,8.7223 l -7.96712,5.32546 z m 44.54426,-30.01809 a 486.62294,486.62294 0 0 1 -2.13019,-12.22146 l -0.61077,-4.09188 3.70074,-0.43325 c 2.04594,-0.23469 7.6181,-0.64688 12.38994,-0.90262 l 8.68621,-0.46034 -2.97563,3.17421 c -4.91025,5.24121 -10.49445,12.28164 -14.12599,17.84177 l -3.42093,5.22616 z M 93.06734,154.195 c 4.95839,-8.40338 20.62484,-28.34825 25.93525,-33.03585 l 1.56454,-1.38702 v 30.48445 l -6.34842,1.23358 c -5.52102,1.0711 -17.32126,3.95046 -21.51844,5.24421 -1.28172,0.40016 -1.25764,0.18654 0.36406,-2.53937 z m 44.31859,-24.59937 c 0.12937,-10.00102 0.42122,-18.3683 0.65891,-18.60298 0.81236,-0.82439 34.76287,5.93322 36.04459,7.1668 0.12034,0.12035 -0.90262,3.91435 -2.26859,8.45152 -1.37499,4.5492 -3.0689,10.74116 -3.77294,13.76193 l -1.28172,5.52403 -10.22367,0.45131 c -5.62933,0.24671 -12.29367,0.66793 -14.80896,0.93872 l -4.58231,0.49343 z m 48.4556,14.86914 c 0,-0.33096 2.87935,-10.73214 4.40778,-15.90415 l 1.43517,-4.84104 8.8607,3.64357 c 11.74007,4.82901 11.4723,4.65451 8.84868,5.74667 -6.12276,2.57548 -16.21705,7.46165 -19.31905,9.37822 -3.29155,2.02186 -4.23328,2.45813 -4.23328,1.97673 z m 32.63869,-29.14857 c -2.59653,-1.30278 -8.19277,-3.77295 -12.43508,-5.48793 l -7.72039,-3.11403 0.75218,-2.15125 c 0.95076,-2.7259 11.57458,-24.024703 13.56335,-27.198913 l 1.49233,-2.382915 4.53416,3.053862 c 5.93622,4.019663 16.84286,12.17633 20.43829,15.3024 l 2.8583,2.482202 -7.582,8.650094 c -4.16107,4.74778 -8.37931,9.67006 -9.37821,10.92771 l -1.81125,2.30469 z M 170.97238,98.5335 a 438.02292,438.02292 0 0 0 -14.13501,-3.360751 l -4.72371,-0.974828 6.39054,-3.797018 a 246.84823,246.84823 0 0 1 11.6137,-6.41762 c 5.5812,-2.81918 22.41203,-9.754303 22.77609,-9.390247 0.12035,0.117341 -1.17341,2.960591 -2.88839,6.312316 -1.70595,3.348716 -4.38672,9.02619 -5.94826,12.621622 -1.56453,3.583396 -3.02076,6.721506 -3.24641,6.956186 -0.22265,0.23769 -4.6515,-0.643871 -9.83855,-1.94966 z m 0,0"
       fill="#3eb049"
       id="path1-6"
       style="fill:#43b049;fill-opacity:1;stroke-width:3.00873" /></g><style
     id="style1-1">*{fill:#36c}</style><style
     type="text/css"
     id="style1-5">.st0{fill:#0acf83}.st1{fill:#a259ff}.st2{fill:#f24e1e}.st3{fill:#ff7262}.st4{fill:#1abcfe}</style></svg>
