<?xml version="1.0" encoding="UTF-8" standalone="no"?>
<!-- Created with Inkscape (http://www.inkscape.org/) -->

<svg
   width="512"
   height="512"
   viewBox="0 0 512 512"
   version="1.1"
   id="svg1"
   xml:space="preserve"
   inkscape:export-filename="figma.svg"
   inkscape:export-xdpi="96"
   inkscape:export-ydpi="96"
   xmlns:inkscape="http://www.inkscape.org/namespaces/inkscape"
   xmlns:sodipodi="http://sodipodi.sourceforge.net/DTD/sodipodi-0.dtd"
   xmlns="http://www.w3.org/2000/svg"
   xmlns:svg="http://www.w3.org/2000/svg"><sodipodi:namedview
     id="namedview1"
     pagecolor="#ffffff"
     bordercolor="#000000"
     borderopacity="0.25"
     inkscape:showpageshadow="2"
     inkscape:pageopacity="0.0"
     inkscape:pagecheckerboard="0"
     inkscape:deskcolor="#d1d1d1"
     inkscape:document-units="px" /><defs
     id="defs1"><style
       id="style1">.cls-1{fill:none;}.cls-2{clip-path:url(#clip-path);}.cls-3{fill:url(#linear-gradient);}.cls-4{clip-path:url(#clip-path-2);}.cls-5{fill:url(#linear-gradient-2);}</style></defs><g
     inkscape:label="Capa 1"
     inkscape:groupmode="layer"
     id="layer1"><rect
       style="fill:#242938;fill-opacity:1;stroke-width:1"
       id="rect1"
       width="512"
       height="512"
       x="0"
       y="5.8339168e-08"
       rx="65.232193"
       ry="65.232193" /><g
       id="g23"
       transform="matrix(0.40584985,0,0,0.40599859,49.705324,48.120262)"><path
         d="m 0,0 c 10.624005,-0.46191328 22.749071,1.8912295 32.003906,7.1601562 0.810821,0.4589063 1.621641,0.9178126 2.457031,1.3906251 6.977106,4.2087367 13.206624,9.2313367 19.511719,14.3593747 4.157345,3.373248 8.39624,6.632877 12.65625,9.875 0.718814,0.547368 1.437627,1.094737 2.178223,1.658692 1.409433,1.072737 2.819095,2.145173 4.229004,3.217285 2.830461,2.156207 5.649291,4.327176 8.467773,6.499023 4.992008,3.843846 9.993969,7.674438 15,11.5 7.177834,5.485596 14.342454,10.987968 21.500004,16.5 2.16644,1.666953 4.33321,3.33349 6.5,5 3.20374,2.464047 6.40716,4.928504 9.60937,7.394531 6.12166,4.713069 12.25223,9.414215 18.39063,14.105469 7.17781,5.485624 14.34245,10.987964 21.5,16.500004 2.16644,1.66695 4.33321,3.33349 6.5,5 3.20374,2.46404 6.40716,4.9285 9.60937,7.39453 6.12166,4.71307 12.25223,9.41421 18.39063,14.10547 7.17781,5.48562 14.34245,10.98796 21.5,16.5 2.16644,1.66695 4.33321,3.33349 6.5,5 3.20374,2.46404 6.40716,4.9285 9.60937,7.39453 6.12166,4.71307 12.25223,9.41421 18.39063,14.10547 7.17781,5.48562 14.34245,10.98796 21.5,16.5 2.16644,1.66695 4.33321,3.33349 6.5,5 3.20374,2.46404 6.40716,4.9285 9.60937,7.39453 1.03641,0.79793 2.07281,1.59586 3.14063,2.41797 0.52448,0.40404 1.04897,0.80808 1.58935,1.22436 3.11652,2.3985 6.24066,4.78659 9.37158,7.16626 10.71596,8.14975 21.26173,16.36908 31.20703,25.46094 1.4249,1.28909 2.85617,2.57161 4.31324,3.82422 12.76143,10.97537 25.11076,23.06421 35.2688,36.51172 0.76699,0.96164 1.53398,1.92328 2.32421,2.91406 46.07272,57.96068 67.38386,132.78023 59.42579,206.35547 -7.57037,61.38159 -34.9978,118.38324 -77.3584,163.2373 -2.09465,2.24752 -4.11319,4.56093 -6.1416,6.86817 -3.18211,3.54708 -6.4773,6.73847 -10.1211,9.80468 -2.428,2.07605 -4.73666,4.25964 -7.0664,6.44532 -70.01564,63.65057 -164.19948,85.77168 -256.526615,82.28186 -8.593252,-0.4277 -17.054121,-1.49664 -25.535889,-2.90686 -1.802109,-0.29004 -1.802109,-0.29004 -3.640625,-0.58594 -71.2224969,-11.77352 -135.953009,-44.13516 -187.234371,-95.03906 -0.86787,-0.85852 -1.73573,-1.71704 -2.62989,-2.60157 -5.91944,-5.94891 -11.27806,-12.20448 -16.49511,-18.77343 -0.95326,-1.16893 -1.9075,-2.33706 -2.86328,-3.50391 -11.14405,-13.91673 -20.80304,-28.73807 -29.13672,-44.49609 -0.33983,-0.64115 -0.67966,-1.2823 -1.02979,-1.94287 -17.94317,-34.16153 -29.19819,-70.77554 -29.10058,-109.50977 0.005,-2.56923 -1e-5,-5.13829 -0.006,-7.70752 6.6e-4,-1.63411 0.002,-3.26823 0.004,-4.90234 -0.002,-0.76764 -0.004,-1.53528 -0.006,-2.32618 0.024,-5.38133 0.024,-5.38133 1.13895,-7.61132 -7.84294,6.05503 -15.52975,12.2352 -23.02124,18.72094 -4.10977,3.55269 -8.29541,6.98699 -12.55689,10.35718 -4.51849,3.58564 -8.96256,7.26311 -13.42187,10.92188 -1.83311,1.50028 -3.66644,3.00028 -5.5,4.5 -0.9075,0.7425 -1.815,1.485 -2.75,2.25 -28.41667,23.25 -56.83334,46.5 -85.25,69.75 -0.91524,0.74894 -1.83047,1.49789 -2.77344,2.26953 -1.75474,1.43547 -3.50992,2.8704 -5.26563,4.30468 -1.28004,1.04608 -1.28004,1.04608 -2.58593,2.11329 -0.90235,0.73734 -1.80469,1.47468 -2.73438,2.23437 -2.39274,1.95998 -4.77557,3.93165 -7.15625,5.90625 -4.31343,3.57538 -8.64194,7.13179 -12.98437,10.67188 -0.59636,0.4871 -1.19271,0.97421 -1.80713,1.47607 -19.49551,15.81498 -40.82087,25.39657 -66.56006,23.05908 -14.14779,-2.08413 -27.80345,-7.95065 -36.63281,-19.53515 -9.42345,-14.80654 -11.66141,-29.22152 -8.31641,-46.53907 5.85475,-23.05472 20.86259,-38.48249 39.31641,-52.46093 0.65516,-0.4971 1.31033,-0.99419 1.98535,-1.50635 3.28347,-2.48264 6.58126,-4.94532 9.88574,-7.3999 4.40361,-3.28241 8.73787,-6.65076 13.06641,-10.03125 8.00739,-6.25209 16.06674,-12.43307 24.14306,-18.59571 2.8118,-2.14872 5.61578,-4.30745 8.41944,-6.46679 4.992,-3.84385 9.99397,-7.67444 15,-11.5 7.17783,-5.4856 14.3428,-10.98752 21.5,-16.5 7.88623,-6.074 15.78441,-12.13188 23.69336,-18.17627 6.44611,-4.92759 12.87848,-9.87276 19.30664,-14.82373 7.88623,-6.074 15.78441,-12.13188 23.69336,-18.17627 6.44611,-4.92759 12.87848,-9.87276 19.30664,-14.82373 7.88623,-6.074 15.78441,-12.13188 23.69336,-18.17627 6.44611,-4.92759 12.87816,-9.87316 19.30664,-14.82373 2.71128,-2.08618 5.42305,-4.17171 8.13476,-6.25733 2.65876,-2.04501 5.31706,-4.09062 7.97461,-6.13721 6.85079,-5.27442 13.71447,-10.53172 20.58399,-15.78173 6.44611,-4.92759 12.87848,-9.87276 19.30664,-14.82373 7.88251,-6.07113 15.77647,-12.12684 23.68237,-18.16748 5.44075,-4.1583 10.86928,-8.33212 16.29028,-12.51612 2.39632,-1.83357 4.80188,-3.65199 7.21656,-5.46118 0.71518,-0.53597 1.43036,-1.07195 2.16722,-1.62416 0.54237,-0.40625 1.08475,-0.8125 1.64357,-1.23106 -1.01877,-0.001 -2.03753,-0.003 -3.08716,-0.004 -24.82328,-0.0366 -49.64641,-0.0962 -74.46957,-0.17946 -12.00445,-0.0397 -24.00883,-0.0722 -36.01334,-0.0871 -10.46681,-0.013 -20.93347,-0.04 -31.40019,-0.0836 -5.53873,-0.0226 -11.07729,-0.0383 -16.61607,-0.0373 -5.22116,7.5e-4 -10.44193,-0.0173 -15.66299,-0.0493 -1.90862,-0.008 -3.81729,-0.0103 -5.72593,-0.005 -16.24397,0.0415 -30.67676,-1.93846 -43.12241,-13.50341 -8.36883,-9.04402 -10.3993,-17.91318 -10.17969,-29.9375 0.25556,-5.54736 1.812,-10.15948 4.27735,-15.11328 0.4125,-0.83918 0.825,-1.67836 1.25,-2.54297 8.36064,-15.31993 23.12621,-25.04083 39.30078,-30.48438 9.53476,-2.68874 18.25877,-3.26525 28.10963,-3.25113 1.5917,-0.005 3.18339,-0.0109 4.77507,-0.0175 4.35789,-0.0157 8.71571,-0.0192 13.07361,-0.0206 4.70543,-0.004 9.41082,-0.0189 14.11623,-0.0326 8.14715,-0.0222 16.2943,-0.0373 24.44148,-0.0474 11.77939,-0.0146 23.55874,-0.0401 35.3381,-0.0683 19.11217,-0.0454 38.22435,-0.0821 57.33655,-0.11314 18.56349,-0.0302 37.12696,-0.0645 55.690431,-0.10449 1.716963,-0.004 1.716963,-0.004 3.468612,-0.007 5.742447,-0.0124 11.484895,-0.0248 17.227342,-0.0373 47.624033,-0.10354 95.248084,-0.19275 142.872161,-0.27259 -2.085368,-1.76956 -4.171397,-3.53832 -6.257812,-5.30664 -0.881356,-0.74809 -0.881356,-0.74809 -1.780518,-1.5113 -3.920505,-3.32142 -7.889822,-6.54674 -11.96167,-9.68206 -5.151231,-3.99754 -10.153659,-8.13404 -15.105469,-12.375 -3.887025,-3.31292 -7.861908,-6.49149 -11.894531,-9.625 -5.148773,-4.00082 -10.153514,-8.13391 -15.105469,-12.375 -3.887025,-3.31292 -7.861908,-6.49149 -11.8945308,-9.625 -5.14958177,-4.00144 -10.1554027,-8.134875 -15.107666,-12.377201 -3.8640842,-3.293964 -7.8185422,-6.447968 -11.8298342,-9.560303 -29.053419,-22.635915 -29.053419,-22.635915 -32.0625,-35.5625 -1.250264,-11.213709 0.643122,-19.663652 7.25,-28.75 C -36.01812,8.707795 -21.25847,2.3819559 -6.3710937,0.47265625 -4.2480388,0.29728967 -2.1233813,0.17036915 0,0 Z"
         fill="#E87D0D"
         transform="translate(530.99609,127.83984)"
         id="path1-8"
         style="fill:#ea7600;fill-opacity:1" /><path
         d="M 0,0 C 0.8559375,0.64324219 1.711875,1.2864844 2.59375,1.9492187 7.6806402,5.8882555 12.454138,10.148381 17.1875,14.5 c 0.57041,0.521829 1.14082,1.043657 1.728516,1.581299 25.022549,23.326657 42.498966,55.419438 49.613769,88.723391 0.303825,1.41848 0.615464,2.83532 0.936524,4.25 C 72.314207,121.71475 72.368304,134.07033 72,147 c -0.01934,1.30582 -0.03867,2.61164 -0.05859,3.95703 C 70.200587,197.95915 44.884215,238.77093 11.719238,270.4126 -8.6457398,289.21593 -33.182983,301.60942 -59,311 c -0.738955,0.26974 -1.47791,0.53947 -2.239258,0.81738 C -96.136328,324.29389 -136.99175,325.55525 -173,318 c -1.40331,-0.28883 -1.40331,-0.28883 -2.83496,-0.5835 C -226.30715,306.81362 -273.38636,277.43299 -302,234 c -16.62906,-25.93874 -27.07544,-55.06752 -28,-86 -0.0326,-0.87157 -0.0651,-1.74313 -0.0986,-2.64111 C -331.36178,107.95575 -319.97446,71.351469 -298,41 c 1.12729,-1.573945 1.12729,-1.573945 2.27734,-3.179688 C -263.30618,-6.0561467 -212.08486,-32.488834 -158.875,-40.875 -103.67079,-48.599529 -44.341976,-33.760368 0,0 Z"
         fill="#FEFEFE"
         transform="translate(780,432)"
         id="path2"
         style="fill:#ffffff;fill-opacity:1" /><path
         d="m 0,0 c 11.695567,11.108955 19.933481,24.109656 26.492187,38.742187 0.420235,0.926836 0.840469,1.853672 1.273438,2.808594 10.746065,25.249214 8.73676,54.651103 -1.328125,79.714849 -12.508997,29.55643 -37.228871,52.22165 -66.666992,64.38916 -30.95409,12.2264 -66.722058,14.34911 -98.278318,3.0874 -0.63599,-0.22172 -1.27198,-0.44344 -1.92725,-0.67188 -25.28273,-8.9547 -48.48129,-25.58434 -63.07275,-48.32812 -0.36191,-0.56107 -0.72381,-1.12213 -1.09668,-1.7002 -15.44473,-24.37186 -20.53957,-53.030037 -14.90332,-81.299803 4.95796,-21.157499 16.07235,-39.377401 31,-54.9999995 0.80631,-0.90105469 0.80631,-0.90105469 1.6289,-1.8203125 C -138.04489,-52.706258 -49.969175,-44.987824 0,0 Z"
         fill="#265787"
         transform="translate(749.50781,486.25781)"
         id="path3"
         style="fill:#265787;fill-opacity:1" /></g></g><style
     id="style1-1">*{fill:#36c}</style><style
     type="text/css"
     id="style1-5">.st0{fill:#0acf83}.st1{fill:#a259ff}.st2{fill:#f24e1e}.st3{fill:#ff7262}.st4{fill:#1abcfe}</style></svg>
