<?xml version="1.0" encoding="UTF-8" standalone="no"?>
<!-- Created with Inkscape (http://www.inkscape.org/) -->

<svg
   width="512"
   height="512"
   viewBox="0 0 512 512"
   version="1.1"
   id="svg1"
   xml:space="preserve"
   inkscape:export-filename="filezilla.png"
   inkscape:export-xdpi="96"
   inkscape:export-ydpi="96"
   xmlns:inkscape="http://www.inkscape.org/namespaces/inkscape"
   xmlns:sodipodi="http://sodipodi.sourceforge.net/DTD/sodipodi-0.dtd"
   xmlns:xlink="http://www.w3.org/1999/xlink"
   xmlns="http://www.w3.org/2000/svg"
   xmlns:svg="http://www.w3.org/2000/svg"><sodipodi:namedview
     id="namedview1"
     pagecolor="#ffffff"
     bordercolor="#000000"
     borderopacity="0.25"
     inkscape:showpageshadow="2"
     inkscape:pageopacity="0.0"
     inkscape:pagecheckerboard="0"
     inkscape:deskcolor="#d1d1d1"
     inkscape:document-units="px" /><defs
     id="defs1"><linearGradient
       id="linearGradient1"
       inkscape:collect="always"><stop
         style="stop-color:#bf0000;stop-opacity:1;"
         offset="0"
         id="stop3" /><stop
         style="stop-color:#8f0000;stop-opacity:1;"
         offset="1"
         id="stop4" /></linearGradient><linearGradient
       inkscape:collect="always"
       xlink:href="#linearGradient1"
       id="linearGradient4"
       x1="257.20425"
       y1="10.411429"
       x2="261.43329"
       y2="501.58856"
       gradientUnits="userSpaceOnUse" /></defs><g
     inkscape:label="Capa 1"
     inkscape:groupmode="layer"
     id="layer1"><rect
       style="fill:#242938;fill-opacity:1;stroke-width:1"
       id="rect1"
       width="512"
       height="512"
       x="0"
       y="0"
       rx="65.232193"
       ry="65.232193" /><rect
       style="fill:url(#linearGradient4);fill-opacity:1;fill-rule:nonzero;stroke-width:1"
       id="rect1-1"
       width="512"
       height="512"
       x="0"
       y="0"
       rx="65.232193"
       ry="65.232193" /><path
       d="m 139.07644,64 h 232.09664 l -14.80859,69.59239 H 194.88035 L 181.059,198.2468 H 446 l -11.35739,46.39079 -141.6647,137.71298 c 12.83411,1.97354 25.17877,4.938 38.4982,4.938 32.42126,0 69.69163,-9.88018 94.88696,-20.24543 l -12.94611,60.71972 c -37.04221,17.77022 -59.757,19.26281 -81.94085,19.26281 -24.17493,0 -47.3958,-7.90246 -71.10198,-7.90246 -13.33602,0 -32.58719,0.99091 -44.44651,8.87679 L 190.24696,402.60429 336.39986,257.97562 H 168.20829 L 136.11058,408.51665 H 66 Z"
       style="fill:#ffffff;fill-opacity:1;stroke-width:4.14709"
       id="path1" /></g></svg>
