<?xml version="1.0" encoding="UTF-8" standalone="no"?>
<!-- Created with Inkscape (http://www.inkscape.org/) -->

<svg
   width="512"
   height="512"
   viewBox="0 0 512 512"
   version="1.1"
   id="svg1"
   xml:space="preserve"
   inkscape:export-filename="regex.svg"
   inkscape:export-xdpi="96"
   inkscape:export-ydpi="96"
   xmlns:inkscape="http://www.inkscape.org/namespaces/inkscape"
   xmlns:sodipodi="http://sodipodi.sourceforge.net/DTD/sodipodi-0.dtd"
   xmlns="http://www.w3.org/2000/svg"
   xmlns:svg="http://www.w3.org/2000/svg"><sodipodi:namedview
     id="namedview1"
     pagecolor="#ffffff"
     bordercolor="#000000"
     borderopacity="0.25"
     inkscape:showpageshadow="2"
     inkscape:pageopacity="0.0"
     inkscape:pagecheckerboard="0"
     inkscape:deskcolor="#d1d1d1"
     inkscape:document-units="px" /><defs
     id="defs1"><style
       id="style1">.cls-1{fill:none;}.cls-2{clip-path:url(#clip-path);}.cls-3{fill:url(#linear-gradient);}.cls-4{clip-path:url(#clip-path-2);}.cls-5{fill:url(#linear-gradient-2);}</style></defs><g
     inkscape:label="Capa 1"
     inkscape:groupmode="layer"
     id="layer1"><rect
       style="fill:#242938;fill-opacity:1;stroke-width:1"
       id="rect1"
       width="512"
       height="512"
       x="0"
       y="5.8339168e-08"
       rx="65.232193"
       ry="65.232193" /><path
       d="m 256,448 c -5.31057,0 -10.26708,-1.41112 -14.86957,-3.88057 l -47.08695,-27.86954 c -7.08075,-3.88058 -3.54037,-5.2917 -1.41614,-5.99725 9.559,-3.17501 11.32918,-3.88057 21.24222,-9.52504 1.06212,-0.70556 2.47827,-0.35277 3.54038,0.35279 l 36.11181,21.51951 c 1.41614,0.70556 3.18632,0.70556 4.24844,0 l 141.26087,-81.49195 c 1.41616,-0.70556 2.12421,-2.11668 2.12421,-3.88057 V 174.59624 c 0,-1.76391 -0.70807,-3.17502 -2.12421,-3.88058 L 257.77019,89.576483 c -1.41615,-0.705557 -3.18633,-0.705557 -4.24844,0 L 112.26088,170.71566 c -1.41615,0.70556 -2.12423,2.46946 -2.12423,3.88058 v 162.63114 c 0,1.41112 0.70808,3.17501 2.12423,3.88057 l 38.59006,22.22508 c 20.8882,10.58336 33.98757,-1.7639 33.98757,-14.11117 V 188.7074 c 0,-2.11668 1.77019,-4.23336 4.24844,-4.23336 h 18.05591 c 2.12422,0 4.24845,1.76391 4.24845,4.23336 v 160.51446 c 0,27.86955 -15.22361,44.09738 -41.77641,44.09738 -8.14285,0 -14.51552,0 -32.57142,-8.81946 L 99.86958,363.33303 C 90.66461,358.04134 85,348.16353 85,337.58015 V 174.94901 c 0,-10.58337 5.66461,-20.46119 14.86958,-25.75287 L 241.13043,67.704185 c 8.85093,-4.938913 20.88821,-4.938913 29.73915,0 L 412.13044,149.19614 C 421.33539,154.48782 427,164.36564 427,174.94901 v 162.63114 c 0,10.58338 -5.66461,20.46119 -14.86958,25.75288 L 270.86958,444.82499 C 266.26708,446.94167 260.95652,448 256,448 Z m 43.54659,-111.83095 c -61.95652,0 -74.70187,-28.22233 -74.70187,-52.21131 0,-2.11668 1.77019,-4.23335 4.24844,-4.23335 h 18.40994 c 2.12422,0 3.89441,1.41112 3.89441,3.52779 2.83231,18.69728 10.97517,27.86955 48.50311,27.86955 29.73913,0 42.48448,-6.7028 42.48448,-22.57787 0,-9.17225 -3.54038,-15.87506 -49.91927,-20.46117 -38.59005,-3.88057 -62.66458,-12.34727 -62.66458,-43.03905 0,-28.5751 24.07453,-45.50849 64.43477,-45.50849 45.31676,0 67.62112,15.52227 70.45343,49.38906 0,1.05833 -0.35404,2.11667 -1.06211,3.17501 -0.70807,0.70555 -1.77019,1.41111 -2.83231,1.41111 H 342.3851 c -1.7702,0 -3.54038,-1.41111 -3.89442,-3.175 -4.24844,-19.40286 -15.2236,-25.75289 -44.25466,-25.75289 -32.57141,0 -36.46583,11.28895 -36.46583,19.75563 0,10.23061 4.60249,13.40562 48.50311,19.05008 43.54657,5.64446 64.08073,13.75839 64.08073,44.09738 -0.35403,31.04455 -25.8447,48.68352 -70.80744,48.68352 z"
       fill="#539e43"
       id="path1"
       style="fill:#529f41;fill-opacity:1;stroke-width:1.33357" /></g><style
     id="style1-1">*{fill:#36c}</style></svg>
