<?xml version="1.0" encoding="UTF-8" standalone="no"?>
<!-- Created with Inkscape (http://www.inkscape.org/) -->

<svg
   width="512"
   height="512"
   viewBox="0 0 512 512"
   version="1.1"
   id="svg1"
   xml:space="preserve"
   inkscape:export-filename="gimp.svg"
   inkscape:export-xdpi="96"
   inkscape:export-ydpi="96"
   xmlns:inkscape="http://www.inkscape.org/namespaces/inkscape"
   xmlns:sodipodi="http://sodipodi.sourceforge.net/DTD/sodipodi-0.dtd"
   xmlns:xlink="http://www.w3.org/1999/xlink"
   xmlns="http://www.w3.org/2000/svg"
   xmlns:svg="http://www.w3.org/2000/svg"><sodipodi:namedview
     id="namedview1"
     pagecolor="#ffffff"
     bordercolor="#000000"
     borderopacity="0.25"
     inkscape:showpageshadow="2"
     inkscape:pageopacity="0.0"
     inkscape:pagecheckerboard="0"
     inkscape:deskcolor="#d1d1d1"
     inkscape:document-units="px" /><defs
     id="defs1"><style
       id="style1">.cls-1{fill:none;}.cls-2{clip-path:url(#clip-path);}.cls-3{fill:url(#linear-gradient);}.cls-4{clip-path:url(#clip-path-2);}.cls-5{fill:url(#linear-gradient-2);}</style><linearGradient
       id="a-7"
       x1="23.325001"
       y1="-118.543"
       x2="7.2600002"
       y2="-104.193"
       gradientTransform="matrix(1,0,0,-1,0,-96)"
       gradientUnits="userSpaceOnUse"><stop
         offset="0"
         stop-color="#5391fe"
         id="stop1-8" /><stop
         offset="1"
         stop-color="#3e6dbf"
         id="stop2-5" /></linearGradient><linearGradient
       id="b-8"
       x1="7.0999999"
       y1="-104.002"
       x2="23.000999"
       y2="-118.292"
       xlink:href="#a-7" /><linearGradient
       inkscape:collect="always"
       xlink:href="#a-7"
       id="linearGradient14"
       gradientUnits="userSpaceOnUse"
       gradientTransform="matrix(1,0,0,-1,0,-96)"
       x1="23.325001"
       y1="-118.543"
       x2="7.2600002"
       y2="-104.193" /></defs><g
     inkscape:label="Capa 1"
     inkscape:groupmode="layer"
     id="layer1"><rect
       style="fill:#242938;fill-opacity:1;stroke-width:1"
       id="rect1"
       width="512"
       height="512"
       x="0"
       y="5.8339168e-08"
       rx="65.232193"
       ry="65.232193" /><g
       id="g14"
       transform="matrix(13.711223,0,0,13.691854,36.621038,36.933609)"><path
         d="M 3.174,26.589 A 1.154,1.154 0 0 1 2.246,26.166 1.234,1.234 0 0 1 2.036,25.114 L 6.233,6.78 A 1.8,1.8 0 0 1 7.914,5.41 h 20.912 a 1.157,1.157 0 0 1 0.928,0.423 1.235,1.235 0 0 1 0.21,1.052 l -4.2,18.335 a 1.8,1.8 0 0 1 -1.681,1.37 H 3.174 Z"
         style="fill:url(#linearGradient14);fill-rule:evenodd"
         id="path2" /><path
         d="m 7.914,5.646 h 20.912 a 0.913,0.913 0 0 1 0.908,1.187 l -4.2,18.334 a 1.575,1.575 0 0 1 -1.451,1.187 H 3.174 A 0.913,0.913 0 0 1 2.266,25.167 L 6.466,6.833 A 1.574,1.574 0 0 1 7.914,5.646 Z"
         style="fill:url(#b-8);fill-rule:evenodd"
         id="path3" /><path
         d="m 16.04,21.544 h 5.086 a 1.118,1.118 0 0 1 0,2.234 H 16.04 a 1.118,1.118 0 0 1 0,-2.234 z"
         style="fill:#2c5591;fill-rule:evenodd"
         id="path4" /><path
         d="m 19.339,16.578 a 1.762,1.762 0 0 1 -0.591,0.6 L 9.309,23.953 A 1.224,1.224 0 0 1 7.871,21.976 l 8.512,-6.164 V 15.686 L 11.035,10 a 1.224,1.224 0 0 1 1.782,-1.672 l 6.418,6.827 a 1.166,1.166 0 0 1 0.104,1.423 z"
         style="fill:#2c5591;fill-rule:evenodd"
         id="path5" /><path
         d="m 19.1,16.342 a 1.749,1.749 0 0 1 -0.59,0.6 L 9.074,23.718 A 1.225,1.225 0 0 1 7.635,21.741 l 8.513,-6.164 V 15.45 L 10.8,9.761 A 1.224,1.224 0 0 1 12.583,8.089 L 19,14.916 a 1.162,1.162 0 0 1 0.1,1.426 z"
         style="fill:#ffffff;fill-rule:evenodd"
         id="path6" /><path
         d="m 15.9,21.412 h 5.086 a 1.059,1.059 0 1 1 0,2.118 H 15.9 a 1.059,1.059 0 1 1 0,-2.118 z"
         style="fill:#ffffff;fill-rule:evenodd"
         id="path7" /></g></g><style
     id="style1-1">*{fill:#36c}</style></svg>
