<?xml version="1.0" encoding="UTF-8" standalone="no"?>
<!-- Created with Inkscape (http://www.inkscape.org/) -->

<svg
   width="512"
   height="512"
   viewBox="0 0 512 512"
   version="1.1"
   id="svg1"
   xml:space="preserve"
   inkscape:export-filename="vscode.svg"
   inkscape:export-xdpi="96"
   inkscape:export-ydpi="96"
   xmlns:inkscape="http://www.inkscape.org/namespaces/inkscape"
   xmlns:sodipodi="http://sodipodi.sourceforge.net/DTD/sodipodi-0.dtd"
   xmlns="http://www.w3.org/2000/svg"
   xmlns:svg="http://www.w3.org/2000/svg"><sodipodi:namedview
     id="namedview1"
     pagecolor="#ffffff"
     bordercolor="#000000"
     borderopacity="0.25"
     inkscape:showpageshadow="2"
     inkscape:pageopacity="0.0"
     inkscape:pagecheckerboard="0"
     inkscape:deskcolor="#d1d1d1"
     inkscape:document-units="px" /><defs
     id="defs1"><style
       id="style1">.cls-1{fill:none;}.cls-2{clip-path:url(#clip-path);}.cls-3{fill:url(#linear-gradient);}.cls-4{clip-path:url(#clip-path-2);}.cls-5{fill:url(#linear-gradient-2);}</style><filter
       id="filter0_dd"
       x="6.03194"
       y="4.3857698"
       width="180.604"
       height="161.08701"
       filterUnits="userSpaceOnUse"
       color-interpolation-filters="sRGB"><feFlood
         flood-opacity="0"
         result="BackgroundImageFix"
         id="feFlood11" /><feColorMatrix
         in="SourceAlpha"
         type="matrix"
         values="0 0 0 0 0 0 0 0 0 0 0 0 0 0 0 0 0 0 127 0"
         result="hardAlpha"
         id="feColorMatrix11-1" /><feOffset
         dy="0.246095"
         id="feOffset11" /><feGaussianBlur
         stdDeviation="1.4193958"
         id="feGaussianBlur11" /><feColorMatrix
         type="matrix"
         values="0 0 0 0 0 0 0 0 0 0 0 0 0 0 0 0 0 0 0.24 0"
         id="feColorMatrix12" /><feBlend
         mode="normal"
         in2="BackgroundImageFix"
         result="effect1_dropShadow"
         id="feBlend12-2" /><feColorMatrix
         in="SourceAlpha"
         type="matrix"
         values="0 0 0 0 0 0 0 0 0 0 0 0 0 0 0 0 0 0 127 0"
         result="hardAlpha"
         id="feColorMatrix13" /><feOffset
         dy="1.29524"
         id="feOffset13" /><feGaussianBlur
         stdDeviation="2.59048"
         id="feGaussianBlur13" /><feColorMatrix
         type="matrix"
         values="0 0 0 0 0 0 0 0 0 0 0 0 0 0 0 0 0 0 0.22 0"
         id="feColorMatrix14" /><feBlend
         mode="normal"
         in2="effect1_dropShadow"
         result="effect2_dropShadow"
         id="feBlend14" /><feBlend
         mode="normal"
         in="SourceGraphic"
         in2="effect2_dropShadow"
         result="shape"
         id="feBlend15" /></filter><filter
       id="filter1_dd"
       x="6.03194"
       y="30.118099"
       width="180.604"
       height="161.08501"
       filterUnits="userSpaceOnUse"
       color-interpolation-filters="sRGB"><feFlood
         flood-opacity="0"
         result="BackgroundImageFix"
         id="feFlood15" /><feColorMatrix
         in="SourceAlpha"
         type="matrix"
         values="0 0 0 0 0 0 0 0 0 0 0 0 0 0 0 0 0 0 127 0"
         result="hardAlpha"
         id="feColorMatrix15" /><feOffset
         dy="0.246095"
         id="feOffset15" /><feGaussianBlur
         stdDeviation="1.314673"
         id="feGaussianBlur15" /><feColorMatrix
         type="matrix"
         values="0 0 0 0 0 0 0 0 0 0 0 0 0 0 0 0 0 0 0.24 0"
         id="feColorMatrix16" /><feBlend
         mode="normal"
         in2="BackgroundImageFix"
         result="effect1_dropShadow"
         id="feBlend16" /><feColorMatrix
         in="SourceAlpha"
         type="matrix"
         values="0 0 0 0 0 0 0 0 0 0 0 0 0 0 0 0 0 0 127 0"
         result="hardAlpha"
         id="feColorMatrix17" /><feOffset
         dy="1.29524"
         id="feOffset17" /><feGaussianBlur
         stdDeviation="2.59048"
         id="feGaussianBlur17" /><feColorMatrix
         type="matrix"
         values="0 0 0 0 0 0 0 0 0 0 0 0 0 0 0 0 0 0 0.22 0"
         id="feColorMatrix18" /><feBlend
         mode="normal"
         in2="effect1_dropShadow"
         result="effect2_dropShadow"
         id="feBlend18" /><feBlend
         mode="normal"
         in="SourceGraphic"
         in2="effect2_dropShadow"
         result="shape"
         id="feBlend19" /></filter><linearGradient
       id="paint0_linear"
       x1="151.642"
       y1="8.2714901"
       x2="20.6141"
       y2="140.14799"
       gradientUnits="userSpaceOnUse"><stop
         stop-color="#7252AA"
         id="stop23" /><stop
         offset="1"
         stop-color="#7252AA"
         id="stop24" /></linearGradient><linearGradient
       id="paint1_linear"
       x1="24.814501"
       y1="40.437099"
       x2="147.966"
       y2="178.293"
       gradientUnits="userSpaceOnUse"><stop
         stop-color="#AE7FE2"
         id="stop25" /><stop
         offset="1"
         stop-color="#9A70D4"
         id="stop26" /></linearGradient><linearGradient
       id="paint2_linear"
       x1="160.457"
       y1="5.9357901"
       x2="160.457"
       y2="183.367"
       gradientUnits="userSpaceOnUse"><stop
         stop-color="#D59DFF"
         id="stop27" /><stop
         offset="1"
         stop-color="#C18EF1"
         id="stop28" /></linearGradient></defs><g
     inkscape:label="Capa 1"
     inkscape:groupmode="layer"
     id="layer1"><rect
       style="fill:#242938;fill-opacity:1;stroke-width:1"
       id="rect1"
       width="512"
       height="512"
       x="0"
       y="5.8339168e-08"
       rx="65.232193"
       ry="65.232193" /><g
       id="g11"
       transform="matrix(1.0913615,0,0,1.0890061,-110.85782,42.208221)"><path
         d="M 40.6211,157.524 11.2134,135.467 c -0.9169,-0.681 -1.66096,-1.569 -2.17198,-2.59 -0.51102,-1.022 -0.77474,-2.149 -0.76987,-3.291 V 63.4143 C 8.26668,62.272 8.5304,61.1446 9.04142,60.1231 9.55244,59.1015 10.2965,58.2144 11.2134,57.5333 L 40.6211,35.4761 c -0.79,0.7418 -1.387,1.6652 -1.7392,2.6901 -0.3522,1.0249 -0.4489,2.1202 -0.2818,3.1909 V 151.643 c -0.1671,1.071 -0.0704,2.166 0.2818,3.191 0.3522,1.025 0.9492,1.948 1.7392,2.69 z"
         fill="#5e438f"
         id="path5"
         style="fill:#5e438f;fill-opacity:1"
         transform="matrix(1.8873728,0,0,1.8873728,154.33309,11.733122)" /><path
         d="m 181.455,38.8951 c -1.211,-0.7959 -2.63,-1.2178 -4.08,-1.2131 -0.939,-0.0076 -1.871,0.1702 -2.742,0.5232 -0.87,0.3529 -1.662,0.8741 -2.331,1.5336 l -0.513,0.5156 -31.25,29.9619 -27.422,26.2838 -32.4627,31.1369 -30.0336,28.784 -0.5155,0.516 c -0.6682,0.66 -1.4604,1.182 -2.331,1.536 -0.8707,0.353 -1.8026,0.531 -2.7422,0.523 -1.5906,-0.003 -3.1377,-0.519 -4.4114,-1.472 L 11.2129,135.467 c 1.494,1.122 3.3597,1.633 5.2171,1.428 1.8574,-0.205 3.5668,-1.11 4.7803,-2.531 L 37.6815,115.249 53.8549,96.4643 80.6543,65.3637 127.6,10.8439 c 0.682,-0.8074 1.532,-1.45598 2.491,-1.90034 0.958,-0.44436 2.003,-0.67373 3.059,-0.67204 1.45,-0.00468 2.869,0.41722 4.081,1.21315 z"
         fill="url(#paint0_linear)"
         id="path6"
         style="opacity:1;fill:url(#paint0_linear);filter:url(#filter0_dd)"
         transform="matrix(1.8873728,0,0,1.8873728,154.33309,11.733122)" /><path
         d="m 181.455,154.105 -44.114,29.411 c -1.5,0.98 -3.304,1.385 -5.08,1.142 -1.776,-0.243 -3.404,-1.118 -4.586,-2.466 L 80.6543,127.637 53.8549,96.4644 37.6815,77.7158 21.2103,58.5978 c -1.2243,-1.4067 -2.9354,-2.2981 -4.7897,-2.4956 -1.8543,-0.1974 -3.7147,0.314 -5.2077,1.4313 L 40.6206,35.4764 c 1.2737,-0.9528 2.8208,-1.4692 4.4114,-1.4723 0.9396,-0.008 1.8715,0.1699 2.7422,0.5234 0.8706,0.3534 1.6628,0.8755 2.331,1.5362 l 0.5155,0.5155 30.0336,28.7846 32.4627,31.1364 27.461,26.3228 31.211,29.923 0.513,0.516 c 0.669,0.659 1.461,1.18 2.331,1.533 0.871,0.353 1.803,0.531 2.742,0.523 1.45,0.005 2.869,-0.417 4.08,-1.213 z"
         fill="url(#paint1_linear)"
         id="path7"
         style="mix-blend-mode:normal;fill:url(#paint1_linear);filter:url(#filter1_dd)"
         transform="matrix(1.8873728,0,0,1.8873728,154.33309,11.733122)" /><path
         d="M 184.729,45.0321 V 147.967 c 10e-4,1.214 -0.297,2.408 -0.868,3.479 -0.571,1.07 -1.397,1.984 -2.405,2.659 l -44.115,29.41 c 1.009,-0.675 1.835,-1.589 2.405,-2.66 0.571,-1.071 0.869,-2.266 0.868,-3.48 V 15.6244 c -0.016,-1.2225 -0.333,-2.4223 -0.923,-3.4932 -0.59,-1.0709 -1.435,-1.98 -2.46,-2.64692 l 44.225,29.41042 c 1.005,0.6777 1.829,1.5915 2.4,2.6615 0.57,1.0699 0.87,2.2634 0.873,3.4759 z"
         fill="url(#paint2_linear)"
         id="path8"
         style="fill:url(#paint2_linear)"
         transform="matrix(1.8873728,0,0,1.8873728,154.33309,11.733122)" /></g></g><style
     id="style1-1">*{fill:#36c}</style></svg>
