<?xml version="1.0" encoding="UTF-8" standalone="no"?>
<!-- Created with Inkscape (http://www.inkscape.org/) -->

<svg
   width="512"
   height="512"
   viewBox="0 0 512 512"
   version="1.1"
   id="svg1"
   xml:space="preserve"
   inkscape:export-filename="ts.svg"
   inkscape:export-xdpi="96"
   inkscape:export-ydpi="96"
   xmlns:inkscape="http://www.inkscape.org/namespaces/inkscape"
   xmlns:sodipodi="http://sodipodi.sourceforge.net/DTD/sodipodi-0.dtd"
   xmlns="http://www.w3.org/2000/svg"
   xmlns:svg="http://www.w3.org/2000/svg"><sodipodi:namedview
     id="namedview1"
     pagecolor="#ffffff"
     bordercolor="#000000"
     borderopacity="0.25"
     inkscape:showpageshadow="2"
     inkscape:pageopacity="0.0"
     inkscape:pagecheckerboard="0"
     inkscape:deskcolor="#d1d1d1"
     inkscape:document-units="px" /><defs
     id="defs1" /><g
     inkscape:label="Capa 1"
     inkscape:groupmode="layer"
     id="layer1"><rect
       style="fill:#242938;fill-opacity:1;stroke-width:1"
       id="rect1"
       width="512"
       height="512"
       x="0"
       y="5.8339168e-08"
       rx="65.232193"
       ry="65.232193" /><g
       id="g7"
       transform="matrix(1.9897814,0,0,1.9900552,65.340169,64.758166)"><path
         d="M 0,0 C 1.4432515,2.1220815 2.7613109,4.2316964 4.0625,6.4375 13.578312,21.744613 26.628241,31.264358 44.171875,35.375 50.388501,36.389959 56.75426,37.055181 63,36 c 1.377182,-1.287993 2.711294,-2.623486 4,-4 2.875,-1.082031 2.875,-1.082031 6,-1.8125 1.03125,-0.253945 2.0625,-0.507891 3.125,-0.769531 C 78.923365,29.011141 80.42415,28.896864 83,30 c 3.478497,3.240494 4.937262,6.209502 5.3125,10.9375 C 88.157813,42.453437 88.157813,42.453437 88,44 c -5.625,3 -5.625,3 -9,3 -0.06188,0.61875 -0.12375,1.2375 -0.1875,1.875 C 78,51 78,51 75.8125,52.25 72.759673,53.064087 70.14583,53.146318 67,53 c 0,-0.66 0,-1.32 0,-2 -1.401855,0.580078 -1.401855,0.580078 -2.832031,1.171875 C 36.354336,63.328188 4.9228526,66.444568 -23.246094,54.730469 -36.193866,48.969624 -48.852146,39.885435 -58,29 c 0,-0.66 0,-1.32 0,-2 12.639089,-6.681321 25.334548,-13.257333 38.089111,-19.7155762 1.441073,-0.7315261 2.88037,-1.4665589 4.317871,-2.2050781 2.031489,-1.0426007 4.069062,-2.0722193 6.108643,-3.098877 C -8.8728156,1.6633745 -8.2612561,1.3462802 -7.6311645,1.019577 -3.342454,-1.1141513 -3.342454,-1.1141513 0,0 Z"
         fill="#38a8be"
         transform="translate(104,111)"
         id="path1" /><path
         d="M 0,0 C 0.08564209,1.0935278 0.17128418,2.1870557 0.25952148,3.3137207 0.58126319,7.419569 0.9039073,11.525346 1.2268066,15.631104 1.3657199,17.398988 1.5043972,19.166891 1.6428223,20.934814 2.7413045,34.974201 2.7413045,34.974201 4,49 c -3.92139684,2.465932 -7.9834668,4.462342 -12.1953125,6.371094 -0.6973677,0.318806 -1.3947354,0.637612 -2.1132355,0.966079 -2.270648,1.036776 -4.543362,2.068916 -6.816452,3.100327 -1.570405,0.714168 -3.140799,1.428361 -4.711182,2.142578 -3.961913,1.800351 -7.926145,3.595544 -11.890808,5.389832 -2.165924,0.98156 -4.330364,1.966303 -6.494201,2.952453 C -43.955844,71.624121 -47.69606,73.313217 -51.4375,75 c -1.117134,0.509744 -2.234268,1.019487 -3.385254,1.544678 -1.026577,0.459631 -2.053154,0.919262 -3.11084,1.392822 -0.887439,0.400898 -1.774878,0.801797 -2.689209,1.214844 C -63,80 -63,80 -67,80 -76,61.594262 -76,61.594262 -76,54 -76.75668,53.9407 -77.513359,53.881406 -78.292969,53.820312 -81,53 -81,53 -82.800781,50.742187 -88.242401,40.421388 -88.242401,40.421388 -87,35 c 3.165255,-2.194533 6.525972,-3.76548 10.052002,-5.293213 1.474886,-0.641961 1.474886,-0.641961 2.979568,-1.29689 1.058215,-0.456243 2.11643,-0.912485 3.206711,-1.382553 1.112396,-0.482548 2.224791,-0.965095 3.370896,-1.462265 2.363851,-1.024569 4.728439,-2.047439 7.093704,-3.068741 3.532382,-1.525483 7.062408,-3.056304 10.592041,-4.588135 5.753727,-2.494344 11.515429,-4.969586 17.280823,-7.436828 3.449335,-1.4821515 6.890652,-2.9819507 10.33197,-4.4826055 2.169768,-0.933191 4.339839,-1.8656773 6.510254,-2.7973632 1.493739,-0.6588797 1.493739,-0.6588797 3.017654,-1.33107 0.92383,-0.3927562 1.84766,-0.7855124 2.7994844,-1.19017028 0.8030608,-0.34820298 1.6061215,-0.69640595 2.4335175,-1.05516053 C -4.5548152,-1.1174376 -2.7417011,-0.75245137 0,0 Z"
         fill="#38a8be"
         transform="translate(87,20)"
         id="path2" /><path
         d="m 0,0 c 1.0062097,3.6024626 2.0038959,7.2072312 3,10.8125 0.2861719,1.02416 0.5723438,2.04832 0.8671875,3.103516 C 4.2732422,15.390381 4.2732422,15.390381 4.6875,16.894531 4.9388672,17.8005 5.1902344,18.70647 5.4492187,19.639893 6,22 6,22 6,25 c -0.6698543,0.333817 -1.3397086,0.667634 -2.0298614,1.011566 -6.3132947,3.146628 -12.6256248,6.295181 -18.9368796,9.445898 -3.244688,1.619735 -6.489743,3.238724 -9.735652,4.856013 -3.132593,1.560863 -6.264205,3.12368 -9.395147,4.687854 -1.775795,0.886525 -3.5526,1.771024 -5.329416,2.655499 -1.080894,0.540409 -2.161788,1.080818 -3.275437,1.637604 -0.952642,0.47521 -1.905284,0.950421 -2.886795,1.440033 -2.5653,1.293117 -2.5653,1.293117 -5.410812,3.265533 -0.99,0 -1.98,0 -3,0 -1.789828,-2.321696 -3.372851,-4.595795 -4.9375,-7.0625 -0.429902,-0.656777 -0.859805,-1.313555 -1.302734,-1.990234 C -61.518077,42.979117 -62.766066,40.995939 -64,39 -64.398481,38.35563 -64.796963,37.71126 -65.20752,37.047363 -68,32.373555 -68,32.373555 -68,29 c 1.116328,-0.487668 2.232656,-0.975337 3.382813,-1.477783 C -59.41029,25.246644 -54.205002,22.967405 -49,20.6875 c 0.93306,-0.408452 1.866119,-0.816903 2.827454,-1.237732 C -33.957749,14.099812 -21.771655,8.7062917 -9.71875,2.9987793 -8.4232422,2.3922351 -8.4232422,2.3922351 -7.1015625,1.7734375 -6.3727588,1.4271631 -5.6439551,1.0808887 -4.8930664,0.72412109 -3,0 -3,0 0,0 Z"
         fill="#38a8be"
         transform="translate(93,78)"
         id="path3" /></g></g></svg>
