<?xml version="1.0" encoding="UTF-8" standalone="no"?>
<!-- Created with Inkscape (http://www.inkscape.org/) -->

<svg
   width="512"
   height="512"
   viewBox="0 0 512 512"
   version="1.1"
   id="svg1"
   xml:space="preserve"
   inkscape:export-filename="pandas.svg"
   inkscape:export-xdpi="96"
   inkscape:export-ydpi="96"
   xmlns:inkscape="http://www.inkscape.org/namespaces/inkscape"
   xmlns:sodipodi="http://sodipodi.sourceforge.net/DTD/sodipodi-0.dtd"
   xmlns="http://www.w3.org/2000/svg"
   xmlns:svg="http://www.w3.org/2000/svg"><sodipodi:namedview
     id="namedview1"
     pagecolor="#ffffff"
     bordercolor="#000000"
     borderopacity="0.25"
     inkscape:showpageshadow="2"
     inkscape:pageopacity="0.0"
     inkscape:pagecheckerboard="0"
     inkscape:deskcolor="#d1d1d1"
     inkscape:document-units="px" /><defs
     id="defs1" /><g
     inkscape:label="Capa 1"
     inkscape:groupmode="layer"
     id="layer1"><rect
       style="fill:#242938;fill-opacity:1;stroke-width:1"
       id="rect1"
       width="512"
       height="512"
       x="0"
       y="0"
       rx="65.232193"
       ry="65.232193" /><g
       id="g1"
       transform="matrix(3.0578182,0,0,3.051979,62.885018,59.113782)"><path
         d="M 54.32,27.164 33.304,16.559 10.226,28.071 31.82,38.911 Z M 63.961,32.031 86,43.16 63.137,54.637 41.512,43.782 Z M 93.398,16.715 116.043,28.07 95.789,38.238 73.707,27.097 Z M 83.652,11.824 63.265,1.601 43.101,11.667 64.109,22.257 Z M 67.715,99.605 v 27.816 L 92.41,115.097 92.387,87.269 Z M 92.375,77.555 92.348,50.02 67.715,62.266 v 27.547 z m 29.645,-5.157 v 27.926 l -21.066,10.508 -0.016,-27.797 z m 0,-9.765 V 35.266 l -21.105,10.492 0.016,27.59 z"
         color="#000000"
         fill="#4cabcf"
         style="-inkscape-stroke:none"
         id="path1" /><path
         d="M 58.996,62.266 42.367,53.899 v 36.14 c 0,0 -20.348,-43.283 -22.227,-47.174 C 19.898,42.361 18.898,41.814 18.644,41.677 14.976,39.763 4.289,34.353 4.289,34.353 v 63.871 l 14.785,7.926 v -33.4 c 0,0 20.129,38.676 20.336,39.102 0.21,0.422 2.219,4.492 4.383,5.926 2.87,1.906 15.195,9.316 15.195,9.316 z"
         color="#000000"
         fill="#4c75cf"
         style="-inkscape-stroke:none"
         id="path2" /></g></g></svg>
