<?xml version="1.0" encoding="UTF-8" standalone="no"?>
<!-- Created with Inkscape (http://www.inkscape.org/) -->

<svg
   width="512"
   height="512"
   viewBox="0 0 512 512"
   version="1.1"
   id="svg1"
   xml:space="preserve"
   inkscape:export-filename="githubActions.svg"
   inkscape:export-xdpi="96"
   inkscape:export-ydpi="96"
   xmlns:inkscape="http://www.inkscape.org/namespaces/inkscape"
   xmlns:sodipodi="http://sodipodi.sourceforge.net/DTD/sodipodi-0.dtd"
   xmlns:xlink="http://www.w3.org/1999/xlink"
   xmlns="http://www.w3.org/2000/svg"
   xmlns:svg="http://www.w3.org/2000/svg"><sodipodi:namedview
     id="namedview1"
     pagecolor="#ffffff"
     bordercolor="#000000"
     borderopacity="0.25"
     inkscape:showpageshadow="2"
     inkscape:pageopacity="0.0"
     inkscape:pagecheckerboard="0"
     inkscape:deskcolor="#d1d1d1"
     inkscape:document-units="px" /><defs
     id="defs1"><linearGradient
       id="linearGradient6"
       inkscape:collect="always"><stop
         style="stop-color:#ef5350;stop-opacity:1;"
         offset="0"
         id="stop7" /><stop
         style="stop-color:#e53935;stop-opacity:1;"
         offset="1"
         id="stop8" /></linearGradient><linearGradient
       id="linearGradient5"
       inkscape:collect="always"><stop
         style="stop-color:#fafafa;stop-opacity:1;"
         offset="0"
         id="stop5" /><stop
         style="stop-color:#bdbdbd;stop-opacity:1;"
         offset="1"
         id="stop6" /></linearGradient><radialGradient
       inkscape:collect="always"
       xlink:href="#linearGradient5"
       id="radialGradient6"
       cx="64"
       cy="68"
       fx="64"
       fy="68"
       r="20"
       gradientTransform="matrix(2.9855128,0.02958424,-0.01990114,2.0153269,-125.71954,-70.935621)"
       gradientUnits="userSpaceOnUse" /><radialGradient
       inkscape:collect="always"
       xlink:href="#linearGradient6"
       id="radialGradient8"
       cx="64"
       cy="52"
       fx="64"
       fy="52"
       r="20"
       gradientTransform="matrix(1,0,0,0.2,0,41.6)"
       gradientUnits="userSpaceOnUse" /></defs><g
     inkscape:label="Capa 1"
     inkscape:groupmode="layer"
     id="layer1"><rect
       style="fill:#242938;fill-opacity:1;stroke-width:1"
       id="rect1"
       width="512"
       height="512"
       x="0"
       y="0"
       rx="65.232193"
       ry="65.232193" /><g
       id="g5"
       transform="matrix(3.2,0,0,3.1944444,51.2,51.555557)"><path
         fill="#504f4f"
         d="m 104.86,66.007 3.012,-28.118 1.989,0.213 -3.012,28.118 z"
         id="path1" /><circle
         cx="41.84"
         cy="64"
         r="21.84"
         fill="#504f4f"
         id="circle1" /><circle
         cx="41.84"
         cy="64"
         r="10"
         fill="url(#IconifyId17ecdb2904d178eab21398)"
         id="circle2" /><circle
         cx="41.84"
         cy="64"
         r="18"
         opacity="0.2"
         fill="none"
         stroke="#eeeeee"
         stroke-width="0.941"
         stroke-miterlimit="10"
         id="circle3" /><circle
         cx="41.84"
         cy="64"
         r="14.62"
         opacity="0.2"
         fill="none"
         stroke="#eeeeee"
         stroke-miterlimit="10"
         id="circle4" /><circle
         cx="89.839996"
         cy="64"
         r="17.15"
         fill="#504f4f"
         id="circle5" /><circle
         cx="89.839996"
         cy="64"
         r="10"
         fill="url(#IconifyId17ecdb2904d178eab21399)"
         id="circle6" /><circle
         cx="89.839996"
         cy="64"
         r="13.53"
         opacity="0.2"
         fill="none"
         stroke="#eeeeee"
         stroke-miterlimit="10"
         id="circle7" /><path
         d="m 4,32 v 64 c 0,2.21 1.79,4 4,4 h 112 c 2.21,0 4,-1.79 4,-4 V 32 c 0,-2.21 -1.79,-4 -4,-4 H 8 c -2.21,0 -4,1.79 -4,4 z m 36,46 c 0,1.1 -0.9,2 -2,2 H 20 c -2.21,0 -8,-7.16 -8,-16 0,-8.84 5.79,-16 8,-16 h 18 c 1.1,0 2,0.9 2,2 z m 68,2 H 90 c -1.1,0 -2,-0.9 -2,-2 V 50 c 0,-1.1 0.9,-2 2,-2 h 18 c 2.21,0 8,7.16 8,16 0,8.84 -5.79,16 -8,16 z"
         fill="#595858"
         id="path7" /><path
         fill="#787676"
         d="m 11.85,38.15 h 104 v 2 h -104 z"
         id="path8" /><path
         fill="#787676"
         d="m 11.85,42.15 h 104 v 2 h -104 z"
         id="path9" /><path
         fill="#787676"
         d="m 12,88 h 104 v 2 H 12 Z"
         id="path10" /><path
         fill="#787676"
         d="m 12,92 h 104 v 2 H 12 Z"
         id="path11" /><path
         fill="#787676"
         d="m 12,84 h 104 v 2 H 12 Z"
         id="path12" /><path
         d="m 82,48 c 1.1,0 2,0.9 2,2 v 28 c 0,1.1 -0.9,2 -2,2 H 46 c -1.1,0 -2,-0.9 -2,-2 V 50 c 0,-1.1 0.9,-2 2,-2 h 36 m 0,-2 H 46 c -2.21,0 -4,1.79 -4,4 v 28 c 0,2.21 1.79,4 4,4 h 36 c 2.21,0 4,-1.79 4,-4 V 50 c 0,-2.21 -1.79,-4 -4,-4 z"
         fill="#424242"
         opacity="0.2"
         id="path13" /><path
         d="m 84,50 c 0,-1.1 -0.9,-2 -2,-2 H 46 c -1.1,0 -2,0.9 -2,2 v 6 h 40 z"
         fill="url(#IconifyId17ecdb2904d178eab21400)"
         id="path14"
         style="fill:url(#radialGradient8)" /><path
         d="m 44,56 v 22 c 0,1.1 0.9,2 2,2 h 36 c 1.1,0 2,-0.9 2,-2 V 56 Z"
         fill="url(#IconifyId17ecdb2904d178eab21401)"
         id="path16"
         style="fill:url(#radialGradient6);fill-opacity:1" /><path
         d="M 77,66 H 51 c -0.55,0 -1,-0.45 -1,-1 v -2 c 0,-0.55 0.45,-1 1,-1 h 26 c 0.55,0 1,0.45 1,1 v 2 c 0,0.55 -0.45,1 -1,1 z"
         fill="#bdbdbd"
         id="path17" /><path
         d="M 77,74 H 51 c -0.55,0 -1,-0.45 -1,-1 v -2 c 0,-0.55 0.45,-1 1,-1 h 26 c 0.55,0 1,0.45 1,1 v 2 c 0,0.55 -0.45,1 -1,1 z"
         fill="#bdbdbd"
         id="path18" /><path
         d="M 64,28 H 7.89 C 5.74,28 4,29.74 4,31.89 v 12.26 h 4.73 l 0.06,-8 h 110.54 l -0.06,8 H 124 V 31.88 C 124,29.74 122.26,28 120.12,28 Z"
         fill="#424242"
         id="path19" /></g></g></svg>
