<?xml version="1.0" encoding="UTF-8" standalone="no"?>
<!-- Created with Inkscape (http://www.inkscape.org/) -->

<svg
   width="512"
   height="512"
   viewBox="0 0 512 512"
   version="1.1"
   id="svg1"
   xml:space="preserve"
   inkscape:export-filename="html5.svg"
   inkscape:export-xdpi="96"
   inkscape:export-ydpi="96"
   xmlns:inkscape="http://www.inkscape.org/namespaces/inkscape"
   xmlns:sodipodi="http://sodipodi.sourceforge.net/DTD/sodipodi-0.dtd"
   xmlns="http://www.w3.org/2000/svg"
   xmlns:svg="http://www.w3.org/2000/svg"><sodipodi:namedview
     id="namedview1"
     pagecolor="#ffffff"
     bordercolor="#000000"
     borderopacity="0.25"
     inkscape:showpageshadow="2"
     inkscape:pageopacity="0.0"
     inkscape:pagecheckerboard="0"
     inkscape:deskcolor="#d1d1d1"
     inkscape:document-units="px" /><defs
     id="defs1" /><g
     inkscape:label="Capa 1"
     inkscape:groupmode="layer"
     id="layer1"><rect
       style="fill:#242938;fill-opacity:1;stroke-width:1"
       id="rect1"
       width="512"
       height="512"
       x="0"
       y="5.8339168e-08"
       rx="65.232193"
       ry="65.232193" /><path
       id="rect1-9"
       style="fill:#264de4;fill-opacity:1;stroke-width:0.707107"
       d="M 64.571892,0 C 128.44242,-1.1258808 256,0 256,0 v 512 c 0,0.30956 -129.17613,0 -191.428108,0 C 28.799064,512 0,483.20094 0,447.42811 V 64.571892 C 0,28.799064 28.804621,0.63048934 64.571892,0 Z"
       sodipodi:nodetypes="sccssss" /><path
       id="rect1-9-7"
       style="fill:#2965f1;fill-opacity:1;stroke-width:0.707107"
       d="m 447.42811,0.50039111 c -63.87053,-1.12588 -191.42811,0 -191.42811,0 V 512.50039 c 0,0.30956 129.17613,0 191.42811,0 C 483.20094,512.50039 512,483.70133 512,447.9285 V 65.072281 C 512,29.299451 483.19538,1.1308811 447.42811,0.50039111 Z"
       sodipodi:nodetypes="sccssss" /><g
       id="g7"
       transform="matrix(1.4943511,0,0,1.4932802,-126.39511,-199.27277)"><polygon
         id="polygon3005"
         points="255.843,268.217 255.843,313.627 311.761,313.627 306.49,372.521 255.843,386.191 255.843,433.435 348.937,407.634 349.62,399.962 360.291,280.411 361.399,268.217 369.597,176.305 255.843,176.305 255.843,221.716 319.831,221.716 315.699,268.217 "
         style="fill:#ffffff" /><g
         id="g6"><polygon
           id="polygon2993"
           points="154.38,313.627 256,313.627 256,268.217 150.31,268.217 "
           style="fill:#ebebeb" /><polygon
           id="polygon2995"
           points="146.26,221.716 256,221.716 256,176.305 255.843,176.305 142.132,176.305 "
           style="fill:#ebebeb" /><polygon
           id="polygon2997"
           points="201.994,336.333 177.419,336.333 156.409,336.333 162.771,407.634 255.791,433.457 256,433.399 256,386.153 255.801,386.206 205.227,372.55 "
           style="fill:#ebebeb" /></g></g></g></svg>
