<?xml version="1.0" encoding="UTF-8" standalone="no"?>
<!-- Created with Inkscape (http://www.inkscape.org/) -->

<svg
   width="512"
   height="512"
   viewBox="0 0 512 512"
   version="1.1"
   id="svg1"
   xml:space="preserve"
   inkscape:export-filename="tensorflow.svg"
   inkscape:export-xdpi="96"
   inkscape:export-ydpi="96"
   xmlns:inkscape="http://www.inkscape.org/namespaces/inkscape"
   xmlns:sodipodi="http://sodipodi.sourceforge.net/DTD/sodipodi-0.dtd"
   xmlns="http://www.w3.org/2000/svg"
   xmlns:svg="http://www.w3.org/2000/svg"><sodipodi:namedview
     id="namedview1"
     pagecolor="#ffffff"
     bordercolor="#000000"
     borderopacity="0.25"
     inkscape:showpageshadow="2"
     inkscape:pageopacity="0.0"
     inkscape:pagecheckerboard="0"
     inkscape:deskcolor="#d1d1d1"
     inkscape:document-units="px" /><defs
     id="defs1"><style
       id="style1">.cls-1{fill:none;}.cls-2{clip-path:url(#clip-path);}.cls-3{fill:url(#linear-gradient);}.cls-4{clip-path:url(#clip-path-2);}.cls-5{fill:url(#linear-gradient-2);}</style></defs><g
     inkscape:label="Capa 1"
     inkscape:groupmode="layer"
     id="layer1"><rect
       style="fill:#242938;fill-opacity:1;stroke-width:1"
       id="rect1"
       width="512"
       height="512"
       x="0"
       y="5.8339168e-08"
       rx="65.232193"
       ry="65.232193" /><path
       d="m 94.59442,256 a 262.07388,262.37749 0 0 0 8.65247,67.5675 257.45924,257.75751 0 0 0 25.57287,61.4075 17.49723,17.517501 0 0 1 1.92278,5.19749 7.8833671,7.8925 0 0 1 0,4.04251 7.3065354,7.3150001 0 0 1 -1.92278,2.8875 l -2.69188,2.11749 -15.95901,9.62501 a 286.30082,286.6325 0 0 1 -21.342768,-38.5 261.88161,262.185 0 0 1 -14.228517,-38.50001 254.19052,254.485 0 0 1 -8.075644,-38.49999 315.33469,315.70001 0 0 1 0,-79.695 254.19052,254.485 0 0 1 8.075644,-38.5 266.11171,266.42 0 0 1 14.228517,-38.5 A 287.2622,287.595 0 0 1 109.59204,102 l 15.95901,9.8175 2.69188,2.1175 a 7.6910899,7.7000001 0 0 1 1.92277,2.8875 7.8833671,7.8925 0 0 1 0,4.0425 17.881784,17.9025 0 0 1 -1.92277,5.19749 A 261.49705,261.8 0 0 0 94.59442,256 Z m 64.9897,67.5675 a 29.418419,29.4525 0 0 1 2.11505,-11.3575 28.841587,28.875 0 0 1 5.9606,-9.24 28.841587,28.875 0 0 1 31.72574,-6.16 29.033864,29.0675 0 0 1 15.38218,15.4 28.264756,28.297501 0 0 1 2.30733,11.3575 28.072478,28.105 0 0 1 -2.30733,11.3575 29.99525,30.03 0 0 1 -6.15287,9.24 28.072478,28.105 0 0 1 -9.22931,6.15999 30.187528,30.2225 0 0 1 -22.68871,0 26.918814,26.95 0 0 1 -9.03703,-6.15999 28.841587,28.875 0 0 1 -8.07565,-20.5975 z m 207.65944,-90.86 -10.38298,18.095 -33.64852,-19.25001 -6.53742,-4.42749 a 26.53426,26.565 0 0 1 -5.19149,-5.005 35.379014,35.420001 0 0 1 1.92277,14.63 v 38.49999 H 294.1782 V 236.75 a 41.531885,41.58 0 0 1 2.30732,-14.63 34.994458,35.034999 0 0 1 -11.15207,9.24 L 251.8772,250.61001 241.49423,232.515 274.7582,213.265 a 43.262381,43.312501 0 0 1 14.42079,-5.58251 34.033072,34.0725 0 0 1 -14.42079,-5.38999 l -34.41763,-19.4425 10.38297,-18.095 33.64852,19.24999 6.34514,4.62001 a 31.533469,31.570001 0 0 1 5.19149,5.19749 A 38.455449,38.5 0 0 1 294.1782,179 v -38.5 h 19.22772 V 179 a 56.337233,56.4025 0 0 1 0,7.7 26.149705,26.18 0 0 1 -1.92277,6.93 43.070104,43.120001 0 0 1 11.34436,-9.4325 l 33.45623,-19.25001 10.38298,18.095 -33.26397,19.25001 -6.92197,3.46499 a 24.803765,24.8325 0 0 1 -6.92199,1.925 40.570499,40.6175 0 0 1 6.92199,1.92501 38.455449,38.5 0 0 1 6.92197,3.6575 z M 416.65881,256 a 262.45844,262.7625 0 0 0 -8.65249,-67.5675 265.53488,265.8425 0 0 0 -25.38059,-62.9475 17.881784,17.9025 0 0 1 -1.92277,-5.1975 8.652476,8.6624999 0 0 1 0,-4.0425 6.9219809,6.9300001 0 0 1 1.92277,-2.8875 l 2.69189,-2.1175 16.53583,-9.24 a 298.79884,299.145 0 0 1 21.1505,38.5 265.15033,265.45751 0 0 1 14.22852,38.5 253.42141,253.715 0 0 1 8.07564,38.5 A 310.72003,311.08 0 0 1 448,256 311.68142,312.0425 0 0 1 445.50039,294.49999 253.42141,253.715 0 0 1 437.42474,333 260.92022,261.2225 0 0 1 423.19623,371.5 297.83746,298.18251 0 0 1 402.04573,410 l -16.15128,-9.625 -2.69189,-2.1175 a 6.7297036,6.7375 0 0 1 -1.92277,-2.8875 8.4601989,8.4700001 0 0 1 0,-4.0425 17.49723,17.517501 0 0 1 1.92277,-5.1975 261.88161,262.185 0 0 0 25.18832,-62.1775 A 263.22755,263.5325 0 0 0 416.65881,256 Z"
       id="path1"
       style="stroke-width:19.2388" /></g><style
     id="style1-1">*{fill:#36c}</style></svg>
