<?xml version="1.0" encoding="UTF-8" standalone="no"?>
<!-- Created with Inkscape (http://www.inkscape.org/) -->

<svg
   width="512"
   height="512"
   viewBox="0 0 512 512"
   version="1.1"
   id="svg1"
   xml:space="preserve"
   inkscape:export-filename="js.svg"
   inkscape:export-xdpi="96"
   inkscape:export-ydpi="96"
   xmlns:inkscape="http://www.inkscape.org/namespaces/inkscape"
   xmlns:sodipodi="http://sodipodi.sourceforge.net/DTD/sodipodi-0.dtd"
   xmlns="http://www.w3.org/2000/svg"
   xmlns:svg="http://www.w3.org/2000/svg"><sodipodi:namedview
     id="namedview1"
     pagecolor="#ffffff"
     bordercolor="#000000"
     borderopacity="0.25"
     inkscape:showpageshadow="2"
     inkscape:pageopacity="0.0"
     inkscape:pagecheckerboard="0"
     inkscape:deskcolor="#d1d1d1"
     inkscape:document-units="px" /><defs
     id="defs1" /><g
     inkscape:label="Capa 1"
     inkscape:groupmode="layer"
     id="layer1"><rect
       style="fill:#242938;fill-opacity:1;stroke-width:1"
       id="rect1"
       width="512"
       height="512"
       x="0"
       y="5.8339168e-08"
       rx="65.232193"
       ry="65.232193" /><rect
       style="fill:#3178c6;fill-opacity:1;stroke-width:1"
       id="rect7"
       width="512"
       height="512"
       x="0"
       y="5.8339168e-08"
       rx="65.232193"
       ry="65.232193" /><path
       clip-rule="evenodd"
       d="m 336.68291,400.52855 v 37.97731 c 5.91855,3.16497 12.91855,5.53793 21,7.12042 8.08146,1.58248 16.59854,2.37372 25.55273,2.37372 8.72654,0 17.016,-0.87014 24.86981,-2.61117 7.85383,-1.74028 14.74037,-4.60862 20.65891,-8.60428 5.91855,-3.99489 10.60437,-9.21724 14.05673,-15.66552 3.45237,-6.44827 5.17891,-14.4191 5.17891,-23.91324 0,-6.88372 -0.98618,-12.91627 -2.95927,-18.09841 -1.97309,-5.18214 -4.81818,-9.79076 -8.53672,-13.82586 -3.71782,-4.03511 -8.17601,-7.65524 -13.37383,-10.85966 -5.19781,-3.20441 -11.05964,-6.23055 -17.58545,-9.07841 -4.78036,-2.05738 -9.06764,-4.05483 -12.86182,-5.99311 -3.79418,-1.93903 -7.0189,-3.91675 -9.67491,-5.93393 -2.656,-2.01793 -4.70472,-4.1542 -6.14618,-6.40882 -1.44146,-2.25538 -2.16291,-4.80662 -2.16291,-7.65525 0,-2.61041 0.64509,-4.96441 1.93527,-7.06124 1.29018,-2.09682 3.11128,-3.89627 5.46328,-5.39986 2.35273,-1.50283 5.23563,-2.67034 8.65017,-3.50103 3.41528,-0.83069 7.20873,-1.24566 11.38256,-1.24566 3.0349,0 6.24072,0.23745 9.61745,0.71159 3.37672,0.47489 6.77236,1.20696 10.18764,2.19545 3.41454,0.98924 6.73381,2.23565 9.95927,3.73848 3.22472,1.50359 6.2029,3.24386 8.93454,5.22234 v -35.48524 c -5.5389,-2.21517 -11.59055,-3.85683 -18.15418,-4.92496 C 416.11127,272.53407 408.57964,272 400.08145,272 c -8.6509,0 -16.84581,0.96952 -24.58545,2.90779 -7.73963,1.93828 -14.54982,4.96442 -20.43127,9.07842 -5.88073,4.11476 -10.528,9.35607 -13.94255,15.72545 -3.41454,6.36862 -5.12218,13.98365 -5.12218,22.8451 0,11.31407 3.13018,20.96676 9.39055,28.95807 6.25964,7.99055 15.76363,14.75517 28.512,20.29386 5.00799,2.13628 9.6749,4.23234 14,6.28972 4.32509,2.05738 8.06254,4.19366 11.21091,6.40883 3.14909,2.21517 5.63418,4.62835 7.456,7.23952 1.82108,2.61041 2.73164,5.57738 2.73164,8.9009 0,2.45262 -0.56946,4.72696 -1.70764,6.82379 -1.13819,2.09683 -2.86473,3.916 -5.17891,5.45903 -2.31418,1.54304 -5.19782,2.74924 -8.65019,3.61938 -3.45309,0.8709 -7.49309,1.30559 -12.12218,1.30559 -7.89163,0 -15.70691,-1.44366 -23.44727,-4.33173 -7.73964,-2.88731 -14.91055,-7.21903 -21.512,-12.99517 z m -61.20655,-93.56979 h 46.70546 V 275.7931 H 192 v 31.16566 h 46.47709 v 138.76538 h 36.99927 z"
       fill="#ffffff"
       fill-rule="evenodd"
       id="path2"
       style="fill:#ffffff;fill-opacity:1;stroke-width:0.742782" /></g></svg>
